<svg xmlns="http://www.w3.org/2000/svg" viewBox="0 0 1172.0500000000002 358" width="1172.0500000000002" height="358"><g transform="translate(40, 40)"><rect x="0" y="0" width="380" height="218" style="fill:#fefdfe"></rect><rect x="0" y="0" width="380" height="25" style="fill:#e6eaf2"></rect><text x="10" y="14" style="font-family:&#x27;Arial&#x27;, sans-serif;font-size:14px;fill:#202020">userModel</text><g transform="translate(0, 15)"><g transform="translate(10, 25)"><g transform="translate(0, 0)"><clipPath id="clip_19062a0c-4d9d-4ea6-9b0c-639bce69fadc"><rect x="21" y="0" width="191" height="17"></rect></clipPath><text x="21" y="14" style="fill:#202020;font-family:Arial;font-size:14px" clip-path="url(#clip_19062a0c-4d9d-4ea6-9b0c-639bce69fadc)">_id</text></g><text x="233" y="14" style="fill:#202020;font-family:Arial;font-size:14px" width="80">objectId</text><text x="334" y="14" width="22" height="14" style="fill:#202020;font-family:Arial;font-size:14px">NN</text></g><g transform="translate(10, 49)"><g transform="translate(0, 0)"><clipPath id="clip_069d4826-ebf2-4717-8ccf-b6c57568cb2f"><rect x="21" y="0" width="191" height="17"></rect></clipPath><text x="21" y="14" style="fill:#202020;font-family:Arial;font-size:14px" clip-path="url(#clip_069d4826-ebf2-4717-8ccf-b6c57568cb2f)">profileImage</text></g><text x="233" y="14" style="fill:#202020;font-family:Arial;font-size:14px" width="80">string</text><text x="334" y="14" width="22" height="14" style="fill:#202020;font-family:Arial;font-size:14px"></text></g><g transform="translate(10, 73)"><g transform="translate(0, 0)"><clipPath id="clip_2ceba7df-661f-449f-8885-dab693525ae7"><rect x="21" y="0" width="191" height="17"></rect></clipPath><text x="21" y="14" style="fill:#202020;font-family:Arial;font-size:14px" clip-path="url(#clip_2ceba7df-661f-449f-8885-dab693525ae7)">username</text></g><text x="233" y="14" style="fill:#202020;font-family:Arial;font-size:14px" width="80">string</text><text x="334" y="14" width="22" height="14" style="fill:#202020;font-family:Arial;font-size:14px"></text></g><g transform="translate(10, 97)"><g transform="translate(0, 0)"><clipPath id="clip_516367dd-faf1-4ef4-9f90-68b9233cb341"><rect x="21" y="0" width="191" height="17"></rect></clipPath><text x="21" y="14" style="fill:#202020;font-family:Arial;font-size:14px" clip-path="url(#clip_516367dd-faf1-4ef4-9f90-68b9233cb341)">email</text></g><text x="233" y="14" style="fill:#202020;font-family:Arial;font-size:14px" width="80">string</text><text x="334" y="14" width="22" height="14" style="fill:#202020;font-family:Arial;font-size:14px"></text></g><g transform="translate(10, 121)"><g transform="translate(0, 0)"><clipPath id="clip_2c375432-8440-4169-8b9b-c5869cf2472a"><rect x="21" y="0" width="191" height="17"></rect></clipPath><text x="21" y="14" style="fill:#202020;font-family:Arial;font-size:14px" clip-path="url(#clip_2c375432-8440-4169-8b9b-c5869cf2472a)">createdAt</text></g><text x="233" y="14" style="fill:#202020;font-family:Arial;font-size:14px" width="80">date</text><text x="334" y="14" width="22" height="14" style="fill:#202020;font-family:Arial;font-size:14px"></text></g><g transform="translate(10, 145)"><g transform="translate(0, 0)"><clipPath id="clip_9201ae6d-6850-4168-bb56-d30a0e6a33db"><rect x="21" y="0" width="191" height="17"></rect></clipPath><text x="21" y="14" style="fill:#202020;font-family:Arial;font-size:14px" clip-path="url(#clip_9201ae6d-6850-4168-bb56-d30a0e6a33db)">googleId</text></g><text x="233" y="14" style="fill:#202020;font-family:Arial;font-size:14px" width="80">string</text><text x="334" y="14" width="22" height="14" style="fill:#202020;font-family:Arial;font-size:14px"></text></g><g transform="translate(10, 169)"><g transform="translate(0, 0)"><clipPath id="clip_ef2ab3a1-4258-4801-bcf9-297c48577be2"><rect x="21" y="0" width="191" height="17"></rect></clipPath><text x="21" y="14" style="fill:#202020;font-family:Arial;font-size:14px" clip-path="url(#clip_ef2ab3a1-4258-4801-bcf9-297c48577be2)">refreshToken</text></g><text x="233" y="14" style="fill:#202020;font-family:Arial;font-size:14px" width="80">string</text><text x="334" y="14" width="22" height="14" style="fill:#202020;font-family:Arial;font-size:14px"></text></g></g><rect x="0" y="0" width="380" height="218" style="fill:none;stroke:#e6eaf2"></rect></g><g transform="translate(692.0500000000001, 52.599999999999994)"><rect x="0" y="0" width="380" height="194" style="fill:#fefdfe"></rect><rect x="0" y="0" width="380" height="25" style="fill:#e6eaf2"></rect><text x="10" y="14" style="font-family:&#x27;Arial&#x27;, sans-serif;font-size:14px;fill:#202020">notesModel</text><g transform="translate(0, 15)"><g transform="translate(10, 25)"><g transform="translate(0, 0)"><clipPath id="clip_d47923b9-144c-4acc-a3c2-ff2612abf50c"><rect x="21" y="0" width="191" height="17"></rect></clipPath><text x="21" y="14" style="fill:#202020;font-family:Arial;font-size:14px" clip-path="url(#clip_d47923b9-144c-4acc-a3c2-ff2612abf50c)">_id</text></g><text x="233" y="14" style="fill:#202020;font-family:Arial;font-size:14px" width="80">objectId</text><text x="334" y="14" width="22" height="14" style="fill:#202020;font-family:Arial;font-size:14px">NN</text></g><g transform="translate(10, 49)"><g transform="translate(0, 0)"><clipPath id="clip_a2a9ef09-e714-4c87-a6fd-a9bd9232d613"><rect x="21" y="0" width="191" height="17"></rect></clipPath><text x="21" y="14" style="fill:#202020;font-family:Arial;font-size:14px" clip-path="url(#clip_a2a9ef09-e714-4c87-a6fd-a9bd9232d613)">title</text></g><text x="233" y="14" style="fill:#202020;font-family:Arial;font-size:14px" width="80">string</text><text x="334" y="14" width="22" height="14" style="fill:#202020;font-family:Arial;font-size:14px"></text></g><g transform="translate(10, 73)"><g transform="translate(0, 0)"><clipPath id="clip_598d31c9-aaa9-4c8e-9914-847f6f76fb77"><rect x="21" y="0" width="191" height="17"></rect></clipPath><text x="21" y="14" style="fill:#202020;font-family:Arial;font-size:14px" clip-path="url(#clip_598d31c9-aaa9-4c8e-9914-847f6f76fb77)">content</text></g><text x="233" y="14" style="fill:#202020;font-family:Arial;font-size:14px" width="80">string</text><text x="334" y="14" width="22" height="14" style="fill:#202020;font-family:Arial;font-size:14px"></text></g><g transform="translate(10, 97)"><g transform="translate(0, 0)"><clipPath id="clip_bafe00ef-5444-40fd-918b-5cdeae207226"><rect x="21" y="0" width="191" height="17"></rect></clipPath><text x="21" y="14" style="fill:#202020;font-family:Arial;font-size:14px" clip-path="url(#clip_bafe00ef-5444-40fd-918b-5cdeae207226)">media</text></g><text x="233" y="14" style="fill:#202020;font-family:Arial;font-size:14px" width="80">string[]</text><text x="334" y="14" width="22" height="14" style="fill:#202020;font-family:Arial;font-size:14px"></text></g><g transform="translate(10, 121)"><g transform="translate(0, 0)"><clipPath id="clip_5e4a977c-1c69-4a00-aacf-e395e31ce818"><rect x="21" y="0" width="191" height="17"></rect></clipPath><text x="21" y="14" style="fill:#202020;font-family:Arial;font-size:14px" clip-path="url(#clip_5e4a977c-1c69-4a00-aacf-e395e31ce818)">createdAt</text></g><text x="233" y="14" style="fill:#202020;font-family:Arial;font-size:14px" width="80">date</text><text x="334" y="14" width="22" height="14" style="fill:#202020;font-family:Arial;font-size:14px"></text></g><g transform="translate(10, 145)"><g transform="translate(0, 0)"><clipPath id="clip_6580f20f-5567-4770-a622-8ec53309b9a3"><rect x="21" y="0" width="191" height="17"></rect></clipPath><text x="21" y="14" style="fill:#202020;font-family:Arial;font-size:14px" clip-path="url(#clip_6580f20f-5567-4770-a622-8ec53309b9a3)">user</text></g><text x="233" y="14" style="fill:#202020;font-family:Arial;font-size:14px" width="80">objectId</text><text x="334" y="14" width="22" height="14" style="fill:#202020;font-family:Arial;font-size:14px"></text></g></g><rect x="0" y="0" width="380" height="194" style="fill:none;stroke:#e6eaf2"></rect></g><g><svg><defs><filter id="table_glow"><feGaussianBlur stdDeviation="3.5" result="coloredBlur"></feGaussianBlur><feMerge><feMergeNode in="coloredBlur"></feMergeNode><feMergeNode in="SourceGraphic"></feMergeNode></feMerge></filter></defs><line x1="420" y1="90" x2="682.0500000000001" y2="222.6" stroke="#ecad5a" stroke-width="2"></line><g><line x1="682.0500000000001" y1="222.6" x2="692.0500000000001" y2="222.6" stroke="#ecad5a" stroke-width="2"></line><line x1="682.0500000000001" y1="222.6" x2="692.0500000000001" y2="217.6" stroke="#ecad5a" stroke-width="2"></line><line x1="682.0500000000001" y1="222.6" x2="692.0500000000001" y2="227.6" stroke="#ecad5a" stroke-width="2"></line></g></svg></g></svg>